Coordinates
version=1
nRows=19
nColumns=63
inDegrees=yes

Units are S.I. units (second, meters, Newtons, ...)
If the header above contains a line with 'inDegrees', this indicates whether rotational values are in degrees (yes) or radians (no).

endheader
time	pelvis_tilt	pelvis_list	pelvis_rotation	pelvis_tx	pelvis_ty	pelvis_tz	hip_flexion_r	hip_adduction_r	hip_rotation_r	knee_angle_r	knee_angle_r_beta	ankle_angle_r	subtalar_angle_r	mtp_angle_r	hip_flexion_l	hip_adduction_l	hip_rotation_l	knee_angle_l	knee_angle_l_beta	ankle_angle_l	subtalar_angle_l	mtp_angle_l	L5_S1_Flex_Ext	L5_S1_Lat_Bending	L5_S1_axial_rotation	L4_L5_Flex_Ext	L4_L5_Lat_Bending	L4_L5_axial_rotation	L3_L4_Flex_Ext	L3_L4_Lat_Bending	L3_L4_axial_rotation	L2_L3_Flex_Ext	L2_L3_Lat_Bending	L2_L3_axial_rotation	L1_L2_Flex_Ext	L1_L2_Lat_Bending	L1_L2_axial_rotation	L1_T12_Flex_Ext	L1_T12_Lat_Bending	L1_T12_axial_rotation	Abs_r3	Abs_r2	Abs_r1	Abs_t1	Abs_t2	neck_flexion	neck_bending	neck_rotation	arm_flex_r	arm_add_r	arm_rot_r	elbow_flex_r	pro_sup_r	wrist_flex_r	wrist_dev_r	arm_flex_l	arm_add_l	arm_rot_l	elbow_flex_l	pro_sup_l	wrist_flex_l	wrist_dev_l
2.288136	-7.764116	-5.839545	100.791130	0.306404	0.798144	0.846870	-2.609010	-0.605465	-10.784946	0.945254	0.016498	22.242833	3.689227	0.000000	2.476206	2.624721	7.787753	8.810532	0.153773	17.480765	0.982147	0.000000	-0.108008	-0.235493	-0.590926	-0.200582	-0.313206	-0.627859	-0.177447	-0.572579	-0.627859	-0.123443	-0.572579	-0.517060	-0.100296	-0.480218	-0.480127	-0.061716	-0.364779	-0.443194	-0.771492	-2.663949	-3.286553	0.000000	0.000000	9.392608	0.811389	-5.208456	9.926924	-6.157834	50.882663	44.479018	30.658228	5.134931	13.807118	11.308271	-10.618314	49.871350	54.077161	86.454991	16.342332	7.837164
2.305085	-7.772539	-5.855828	100.812952	0.306463	0.798062	0.847009	-2.608112	-0.600669	-10.316480	0.953480	0.016641	22.135795	3.041920	0.000000	2.453110	2.639694	7.941713	8.729130	0.152352	17.461204	0.836260	0.000000	-0.111940	-0.238037	-0.597327	-0.207884	-0.316589	-0.634660	-0.183906	-0.578763	-0.634660	-0.127936	-0.578763	-0.522661	-0.103947	-0.485405	-0.485328	-0.063962	-0.368719	-0.447996	-0.799575	-2.692719	-3.322156	0.000000	0.000000	9.338788	0.999020	-4.941822	9.899680	-6.178213	50.865529	44.536620	30.901672	5.331976	13.446273	11.261440	-10.647384	49.774247	54.187234	86.270380	16.372753	8.078236
2.322034	-7.786196	-5.880785	100.790527	0.306553	0.797963	0.847170	-2.580283	-0.608285	-9.877377	0.968830	0.016909	22.060700	2.509492	0.000000	2.473383	2.662087	8.032424	8.715277	0.152110	17.455887	0.691180	0.000000	-0.114253	-0.240848	-0.596489	-0.212179	-0.320328	-0.633769	-0.187706	-0.585598	-0.633769	-0.130579	-0.585598	-0.521928	-0.106095	-0.491138	-0.484647	-0.065284	-0.373074	-0.447367	-0.816095	-2.724523	-3.317491	0.000000	0.000000	9.314946	1.188112	-4.662289	9.888586	-6.198072	50.872130	44.579373	30.995519	5.528177	13.140160	11.214285	-10.666285	49.638165	54.284232	86.206727	16.461511	8.242332
2.338983	-7.808257	-5.906599	100.711782	0.306684	0.797875	0.847366	-2.531467	-0.632268	-9.477197	0.984300	0.017179	22.023239	2.119992	0.000000	2.519954	2.690866	8.013308	8.748688	0.152693	17.457047	0.592094	0.000000	-0.116860	-0.243936	-0.584994	-0.217021	-0.324435	-0.621556	-0.191989	-0.593107	-0.621556	-0.133559	-0.593107	-0.511869	-0.108516	-0.497435	-0.475307	-0.066774	-0.377857	-0.438745	-0.834720	-2.759457	-3.253559	0.000000	0.000000	9.324812	1.361621	-4.384163	9.887084	-6.222036	50.885745	44.623580	31.008043	5.673041	12.864603	11.191288	-10.677794	49.529275	54.366797	86.174240	16.501046	8.366696
2.355932	-7.829879	-5.935792	100.542900	0.306922	0.797789	0.847599	-2.451586	-0.663103	-9.120065	1.000922	0.017469	22.030257	1.914553	0.000000	2.595782	2.710706	7.813600	8.829345	0.154101	17.485515	0.598343	0.000000	-0.118991	-0.246449	-0.553557	-0.220977	-0.327777	-0.588154	-0.195490	-0.599216	-0.588154	-0.135994	-0.599216	-0.484362	-0.110495	-0.502559	-0.449765	-0.067991	-0.381749	-0.415167	-0.849938	-2.787880	-3.078716	0.000000	0.000000	9.342504	1.507167	-4.136812	9.888828	-6.257185	50.899925	44.672173	30.964306	5.754051	12.599540	11.213927	-10.685050	49.504530	54.434662	86.171362	16.469399	8.453925
2.372881	-7.839670	-5.964684	100.334617	0.307151	0.797711	0.847877	-2.355322	-0.690546	-8.888476	1.008126	0.017595	22.083687	1.951164	0.000000	2.700532	2.719707	7.540266	8.960945	0.156398	17.544414	0.633357	0.000000	-0.121344	-0.246017	-0.518147	-0.225348	-0.327202	-0.550531	-0.199356	-0.598165	-0.550531	-0.138684	-0.598165	-0.453379	-0.112680	-0.501677	-0.420995	-0.069336	-0.381080	-0.388610	-0.866748	-2.782988	-2.881779	0.000000	0.000000	9.367839	1.619050	-3.861337	9.874454	-6.293112	50.807561	44.748101	30.984928	5.754806	12.522128	11.227896	-10.685445	49.471798	54.520528	86.165541	16.337890	8.540955
2.389831	-7.852753	-6.006891	100.068310	0.307440	0.797637	0.848226	-2.217892	-0.731219	-8.765540	1.029034	0.017960	22.191924	2.208804	0.000000	2.843531	2.726852	7.116576	9.132939	0.159400	17.627506	0.781044	0.000000	-0.121734	-0.245963	-0.468450	-0.226072	-0.327131	-0.497728	-0.199996	-0.598034	-0.497728	-0.139129	-0.598034	-0.409894	-0.113042	-0.501568	-0.380616	-0.069559	-0.380997	-0.351338	-0.869532	-2.782382	-2.605379	0.000000	0.000000	9.362980	1.692020	-3.687940	9.865804	-6.329752	50.726531	44.792940	30.943504	5.756244	12.409900	11.292644	-10.672092	49.523124	54.547741	86.226822	16.245433	8.525952
2.406780	-7.866080	-6.055701	99.781482	0.307715	0.797556	0.848634	-2.058558	-0.781154	-8.799011	1.056881	0.018446	22.351814	2.714381	0.000000	3.014766	2.734347	6.615345	9.341992	0.163049	17.745105	0.996372	0.000000	-0.121860	-0.245416	-0.415125	-0.226306	-0.326404	-0.441070	-0.200204	-0.596705	-0.441070	-0.139274	-0.596705	-0.363234	-0.113159	-0.500453	-0.337289	-0.069631	-0.380150	-0.311343	-0.870434	-2.776199	-2.308799	0.000000	0.000000	9.366282	1.724598	-3.592814	9.854828	-6.371044	50.646409	44.827300	30.850023	5.770484	12.246155	11.381029	-10.647434	49.608076	54.538205	86.331834	16.229790	8.455958
2.423729	-7.878061	-6.114795	99.484508	0.307974	0.797468	0.849096	-1.871970	-0.841408	-9.054143	1.107097	0.019322	22.573227	3.536754	0.000000	3.210238	2.741308	6.085547	9.573285	0.167085	17.873170	1.241764	0.000000	-0.120430	-0.244474	-0.359267	-0.223650	-0.325150	-0.381722	-0.197854	-0.594414	-0.381722	-0.137639	-0.594414	-0.314359	-0.111831	-0.498531	-0.291905	-0.068813	-0.378690	-0.269450	-0.860217	-2.765538	-1.998137	0.000000	0.000000	9.337035	1.732799	-3.579782	9.820095	-6.401945	50.499209	44.846653	30.753444	5.767163	12.096548	11.480878	-10.596490	49.687836	54.495282	86.479261	16.331955	8.478639
2.440678	-7.884459	-6.167901	99.148258	0.308262	0.797400	0.849633	-1.667140	-0.907856	-9.571407	1.195002	0.020857	22.864543	4.778518	0.000000	3.407030	2.729340	5.362891	9.813029	0.171270	18.047953	1.709786	0.000000	-0.120152	-0.242255	-0.292344	-0.223134	-0.322200	-0.310615	-0.197398	-0.589020	-0.310615	-0.137322	-0.589020	-0.255801	-0.111573	-0.494007	-0.237529	-0.068655	-0.375254	-0.219258	-0.858234	-2.740441	-1.625928	0.000000	0.000000	9.267877	1.721958	-3.661208	9.802683	-6.447931	50.407768	44.838145	30.600226	5.786900	11.876313	11.670950	-10.531728	49.976528	54.368186	86.510474	16.402784	8.441872
2.457627	-7.891393	-6.232537	98.844118	0.308480	0.797325	0.850221	-1.457740	-0.973210	-9.949527	1.280213	0.022344	23.095283	5.767613	0.000000	3.609742	2.731344	4.784667	10.034150	0.175129	18.185727	2.031849	0.000000	-0.118021	-0.239939	-0.234636	-0.219178	-0.319119	-0.249301	-0.193897	-0.583389	-0.249301	-0.134887	-0.583389	-0.205307	-0.109595	-0.489285	-0.190642	-0.067437	-0.371666	-0.175977	-0.843015	-2.714243	-1.304978	0.000000	0.000000	9.174713	1.700455	-3.790383	9.830509	-6.493973	50.480240	44.764491	30.393837	5.888985	11.519540	11.854015	-10.447415	50.237400	54.194978	86.651138	16.578101	8.367283
2.474576	-7.894746	-6.298779	98.541885	0.308666	0.797261	0.850831	-1.253749	-1.034961	-10.235075	1.364192	0.023810	23.264040	6.609373	0.000000	3.797471	2.732833	4.238590	10.218622	0.178349	18.300972	2.328587	0.000000	-0.114963	-0.236871	-0.177157	-0.213499	-0.315039	-0.188230	-0.188874	-0.575929	-0.188230	-0.131392	-0.575929	-0.155013	-0.106755	-0.483028	-0.143940	-0.065690	-0.366914	-0.132868	-0.821173	-2.679537	-0.985295	0.000000	0.000000	9.048265	1.659723	-3.983946	9.884909	-6.546891	50.659820	44.656280	30.170067	6.004922	11.107358	12.052687	-10.347990	50.557387	53.972148	86.780458	16.729607	8.235693
2.491525	-7.903868	-6.372259	98.255155	0.308799	0.797199	0.851446	-1.055121	-1.099880	-10.218334	1.447114	0.025257	23.313868	6.975827	0.000000	3.950283	2.759059	3.936413	10.319027	0.180101	18.317146	2.319750	0.000000	-0.110183	-0.234235	-0.126015	-0.204620	-0.311533	-0.133891	-0.181019	-0.569520	-0.133891	-0.125928	-0.569520	-0.110263	-0.102316	-0.477653	-0.102387	-0.062958	-0.362831	-0.094511	-0.787024	-2.649718	-0.700857	0.000000	0.000000	8.899041	1.599227	-4.211550	9.994241	-6.596666	51.020357	44.462273	30.014004	6.256119	10.557875	12.225862	-10.245791	50.854305	53.730495	86.956778	16.862444	8.021038
2.508475	-7.910832	-6.444902	97.947713	0.308952	0.797147	0.852051	-0.861693	-1.163704	-10.163791	1.542713	0.026925	23.322872	7.301871	0.000000	4.075386	2.773594	3.506938	10.369478	0.180982	18.347000	2.486204	0.000000	-0.104760	-0.231248	-0.068526	-0.194550	-0.307560	-0.072809	-0.172110	-0.562257	-0.072809	-0.119730	-0.562257	-0.059960	-0.097280	-0.471561	-0.055677	-0.059860	-0.358203	-0.051394	-0.748290	-2.615926	-0.381120	0.000000	0.000000	8.718222	1.537835	-4.481148	10.096373	-6.658248	51.403202	44.294458	29.869277	6.402286	10.059629	12.397487	-10.141828	51.198268	53.473308	87.148958	16.888403	7.719701
2.525424	-7.914506	-6.513415	97.648279	0.309064	0.797113	0.852653	-0.687950	-1.220499	-9.950989	1.633878	0.028517	23.242862	7.372300	0.000000	4.153757	2.793750	3.217318	10.333567	0.180355	18.307491	2.489237	0.000000	-0.099586	-0.227173	-0.013646	-0.184941	-0.302140	-0.014499	-0.163610	-0.552348	-0.014499	-0.113817	-0.552348	-0.011940	-0.092476	-0.463250	-0.011087	-0.056903	-0.351890	-0.010234	-0.711333	-2.569823	-0.075894	0.000000	0.000000	8.512123	1.466921	-4.745865	10.243165	-6.727889	51.909154	44.065896	29.957027	6.676828	9.446044	12.541452	-10.045980	51.544632	53.233906	87.281166	16.763486	7.379473
2.542373	-7.915916	-6.578137	97.350706	0.309153	0.797097	0.853221	-0.531586	-1.270992	-9.595044	1.725955	0.030124	23.082294	7.222162	0.000000	4.183312	2.817070	3.016256	10.207461	0.178154	18.204603	2.377572	0.000000	-0.094330	-0.222372	0.040367	-0.175180	-0.295755	0.042890	-0.154975	-0.540676	0.042890	-0.107810	-0.540676	0.035321	-0.087595	-0.453462	0.032799	-0.053900	-0.344455	0.030276	-0.673790	-2.515522	0.224511	0.000000	0.000000	8.280580	1.382965	-5.019476	10.409274	-6.804623	52.474160	43.803899	30.266820	7.057182	8.761791	12.644771	-9.956835	51.864643	53.010837	87.364491	16.515009	6.980218
2.559322	-7.918395	-6.643371	97.041780	0.309257	0.797095	0.853764	-0.383732	-1.317660	-9.026810	1.817399	0.031720	22.840705	6.772011	0.000000	4.175968	2.847680	2.902798	10.012037	0.174743	18.054632	2.142725	0.000000	-0.089047	-0.217639	0.094778	-0.165369	-0.289459	0.100701	-0.146295	-0.529167	0.100701	-0.101772	-0.529167	0.082930	-0.082689	-0.443809	0.077007	-0.050881	-0.337122	0.071083	-0.636053	-2.461971	0.527124	0.000000	0.000000	8.039775	1.304668	-5.286512	10.580392	-6.894372	53.065501	43.571270	30.620506	7.402425	8.130605	12.682777	-9.868919	52.075232	52.812633	87.532997	16.213995	6.529400
2.576271	-7.911587	-6.703603	96.770256	0.309315	0.797120	0.854274	-0.257360	-1.345949	-8.329967	1.893122	0.033041	22.528256	6.075591	0.000000	4.142282	2.873189	2.891858	9.772573	0.170564	17.867742	1.819616	0.000000	-0.084408	-0.211751	0.141512	-0.156754	-0.281629	0.150357	-0.138674	-0.514851	0.150357	-0.096470	-0.514851	0.123823	-0.078381	-0.431802	0.114979	-0.048231	-0.328002	0.106134	-0.602918	-2.395367	0.787049	0.000000	0.000000	7.814577	1.220106	-5.541025	10.759705	-6.983121	53.666522	43.321000	31.069458	7.852276	7.499992	12.663974	-9.784523	52.190875	52.642844	87.692791	15.876842	6.080758
2.593220	-7.902536	-6.761533	96.526020	0.309356	0.797176	0.854722	-0.146275	-1.364806	-7.540667	1.953632	0.034097	22.174162	5.214492	0.000000	4.089574	2.894807	2.899579	9.503679	0.165870	17.665605	1.506220	0.000000	-0.079122	-0.206084	0.183306	-0.146938	-0.274092	0.194762	-0.129990	-0.501073	0.194762	-0.090429	-0.501073	0.160392	-0.073473	-0.420247	0.148936	-0.045210	-0.319224	0.137479	-0.565162	-2.331264	1.019491	0.000000	0.000000	7.610104	1.136715	-5.791165	10.938662	-7.069037	54.288623	43.081371	31.466181	8.317888	6.910794	12.599350	-9.704915	52.225428	52.483080	87.842372	15.557457	5.619959
